<?xml version="1.0" encoding="UTF-8"?>
<svg xmlns="http://www.w3.org/2000/svg" width="64" height="64" viewBox="0 0 64 64" aria-label="Weather App Icon">
  <defs>
    <!-- Simple gradient for the sun for a bit of depth at small sizes -->
    <linearGradient id="sunGrad" x1="0" y1="0" x2="1" y2="1">
      <stop offset="0%" stop-color="#FFD54F"/>
      <stop offset="100%" stop-color="#FFA000"/>
    </linearGradient>
    <!-- Cloud color -->
    <linearGradient id="cloudGrad" x1="0" y1="0" x2="0" y2="1">
      <stop offset="0%" stop-color="#FFFFFF"/>
      <stop offset="100%" stop-color="#E0E0E0"/>
    </linearGradient>
  </defs>

  <!-- Background is transparent so it works as a favicon -->
  <!-- Sun -->
  <circle cx="22" cy="22" r="10" fill="url(#sunGrad)"/>
  <!-- Sun rays (kept chunky to remain visible at 16px) -->
  <g transform="translate(22,22)" fill="#FFC107">
    <rect x="-2" y="-16" width="4" height="6" rx="1"/>
    <rect x="-2" y="10" width="4" height="6" rx="1"/>
    <rect x="-16" y="-2" width="6" height="4" rx="1"/>
    <rect x="10" y="-2" width="6" height="4" rx="1"/>
    <rect x="9.0" y="-12.5" width="4" height="6" rx="1" transform="rotate(45 11  -9.5)"/>
    <rect x="-13.0" y="8.5" width="4" height="6" rx="1" transform="rotate(45 -11 11.5)"/>
    <rect x="-13.0" y="-14.5" width="4" height="6" rx="1" transform="rotate(-45 -11 -11.5)"/>
    <rect x="9.0" y="6.5" width="4" height="6" rx="1" transform="rotate(-45 11 9.5)"/>
  </g>

  <!-- Cloud (simple, bold shape) -->
  <!-- Using a path that's readable at small sizes -->
  <path fill="url(#cloudGrad)" d="M40 44H22c-5.523 0-10-3.582-10-8s4.477-8 10-8c.58 0 1.148.042 1.706.123C25.4 24.878 28.43 22 32 22c4.418 0 8 3.582 8 8 0 .33-.02.655-.058.975C42.196 31.685 44.06 31 46 31c4.418 0 8 3.356 8 7.5S50.418 44 46 44h-6z"/>
  
  <!-- Optional raindrops (kept minimal; still readable at 16px) -->
  <g fill="#64B5F6">
    <path d="M26 50c0 1.105-.672 2-1.5 2S23 51.105 23 50s1.5-3.5 1.5-3.5S26 48.895 26 50z"/>
    <path d="M34 52c0 1.105-.672 2-1.5 2S31 53.105 31 52s1.5-3.5 1.5-3.5S34 50.895 34 52z"/>
  </g>
</svg>
